<?xml version="1.0" encoding="iso-8859-1"?>
<!-- Generator: Adobe Illustrator 19.0.0, SVG Export Plug-In . SVG Version: 6.00 Build 0)  -->
<svg xmlns="http://www.w3.org/2000/svg" xmlns:xlink="http://www.w3.org/1999/xlink" version="1.1" id="Capa_1" x="0px" y="0px" viewBox="0 0 480 480" style="enable-background:new 0 0 480 480;" xml:space="preserve" width="512px" height="512px">
<g>
	<g>
		<path d="M472,152h-80v-16h40c4.418,0,8-3.582,8-8V80c0-4.418-3.582-8-8-8h-96c-4.418,0-8,3.582-8,8v48c0,4.418,3.582,8,8,8h40v16    H240c-0.44,0.001-0.878,0.039-1.312,0.112L143.336,168H120v-8c0-2.122-0.844-4.156-2.344-5.656L99.312,136H128    c4.418,0,8-3.582,8-8V80c0-4.418-3.582-8-8-8H32c-4.418,0-8,3.582-8,8v48c0,4.418,3.582,8,8,8h40v32H8c-4.418,0-8,3.582-8,8v128    c0,4.418,3.582,8,8,8h64v32H32c-4.418,0-8,3.582-8,8v48c0,4.418,3.582,8,8,8h96c4.418,0,8-3.582,8-8v-48c0-4.418-3.582-8-8-8    H99.312l18.344-18.344c1.5-1.5,2.344-3.534,2.344-5.656v-8h23.336l95.352,15.888c0.434,0.073,0.872,0.111,1.312,0.112h136v16h-40    c-4.418,0-8,3.582-8,8v48c0,4.418,3.582,8,8,8h96c4.418,0,8-3.582,8-8v-48c0-4.418-3.582-8-8-8h-40v-16h80c4.418,0,8-3.582,8-8    V160C480,155.582,476.418,152,472,152z M344,120V88h80v32H344z M304,168h72v41.136c-11.202,2.913-19.951,11.662-22.864,22.864H304    V168z M184,232h8v16h-8V232z M104,163.312V168H88v-20.688L104,163.312z M104,184v16H88v-16H104z M40,120V88h80v32H40z M16,296V184    h56v16H48c-4.418,0-8,3.582-8,8v64c0,4.418,3.582,8,8,8h24v16H16z M120,360v32H40v-32H120z M104,316.688l-16,16V312h16V316.688z     M104,296H88v-16h16V296z M56,264v-48h80v48H56z M168,299.888l-22.688-3.776c-0.434-0.073-0.872-0.111-1.312-0.112h-24v-16h24    c4.418,0,8-3.582,8-8v-8h16V299.888z M168,248h-16v-16h16V248z M168,216h-16v-8c0-4.418-3.582-8-8-8h-24v-16h24    c0.44-0.001,0.878-0.039,1.312-0.112L168,180.112V216z M288,312h-47.336L184,302.56V264h16c4.418,0,8-3.582,8-8v-8h80V312z     M288,232h-80v-8c0-4.418-3.582-8-8-8h-16v-38.56l56.664-9.44H288V232z M304,312v-64h49.136    c2.913,11.202,11.662,19.951,22.864,22.864V312H304z M424,360v32h-80v-32H424z M384,256c-8.837,0-16-7.163-16-16s7.163-16,16-16    s16,7.163,16,16S392.837,256,384,256z M464,312h-72v-41.136c17.046-4.339,27.347-21.674,23.009-38.719    c-2.877-11.304-11.704-20.131-23.009-23.009V168h72V312z" fill="#FFFFFF"/>
	</g>
</g>
<g>
</g>
<g>
</g>
<g>
</g>
<g>
</g>
<g>
</g>
<g>
</g>
<g>
</g>
<g>
</g>
<g>
</g>
<g>
</g>
<g>
</g>
<g>
</g>
<g>
</g>
<g>
</g>
<g>
</g>
</svg>
