<?xml version="1.0" encoding="iso-8859-1"?>
<!-- Generator: Adobe Illustrator 19.0.0, SVG Export Plug-In . SVG Version: 6.00 Build 0)  -->
<svg xmlns="http://www.w3.org/2000/svg" xmlns:xlink="http://www.w3.org/1999/xlink" version="1.1" id="Capa_1" x="0px" y="0px" viewBox="0 0 513.428 513.428" style="enable-background:new 0 0 513.428 513.428;" xml:space="preserve" width="512px" height="512px">
<g>
	<g>
		<g>
			<rect y="224.714" width="16" height="16" fill="#FFFFFF"/>
			<rect y="416.714" width="32" height="16" fill="#FFFFFF"/>
			<path d="M47.584,379.242l8-24c0.552-1.64,0.552-3.424,0-5.064l-8-24c-1.088-3.264-4.136-5.464-7.584-5.464H0v16h34.232l5.336,16     l-5.336,16H0v16h40C43.448,384.714,46.496,382.514,47.584,379.242z" fill="#FFFFFF"/>
			<path d="M144,128.714H75.064L63.936,39.722c-0.04-0.328-0.208-0.6-0.288-0.92l0.112-0.024l-6.488-25.936     c-1.776-7.144-8.16-12.128-15.52-12.128H0v16h41.76l4,16H0v16h48.936l18,144H0v16h68.936l2,16H32v16h48h16v39.128L65.584,416.714     H48v16h24c3.68,0,6.832-2.52,7.728-6.072l0.024,0.008l0.048-0.176c0-0.008,0.008-0.016,0.008-0.024l0.032-0.136l2.408-9.6h26.648     l-10.664,32H72H24H0v16h16v48h16v-48h32v48h16v-48h18.232c6.896,0,13-4.4,15.168-10.936l14.176-42.528     c0.824-2.44,0.408-5.128-1.096-7.208c-1.496-2.096-3.912-3.328-6.48-3.328H85.528l26.28-118.264     c0.128-0.568,0.192-1.152,0.192-1.736v-48c0-4.424-3.576-8-8-8H87.064l-1.112-8.88l43.36-7.224     c2.52-0.424,4.696-2.024,5.84-4.312l16-32c0.56-1.112,0.848-2.344,0.848-3.584v-32C152,132.29,148.424,128.714,144,128.714z      M136,166.826l-13.336,26.672l-38.696,6.448l-2.904-23.232H112v-16H79.064l-2-16H136V166.826z" fill="#FFFFFF"/>
		</g>
	</g>
</g>
<g>
	<g>
		<rect x="352" y="232.794" width="16" height="15.816" fill="#FFFFFF"/>
	</g>
</g>
<g>
	<g>
		<path d="M496,272.81h-14.032l-13.416-7.088c-1.144-0.6-2.408-0.912-3.696-0.912H432.24l-24.336-1.52v-43.216l78.224-75.576    l0.16,0.16c1.544,1.536,3.568,2.312,5.592,2.312c2.024,0,4.048-0.776,5.592-2.312l11.312-11.312c6.192-6.2,6.192-16.296,0-22.496    L406.968,9.01c-3.008-3-7-4.656-11.248-4.656c-0.008,0-0.008,0-0.016,0c-4.248,0-8.24,1.656-11.224,4.656l-11.32,11.312    c-1.488,1.488-2.32,3.496-2.32,5.592s0.832,4.112,2.312,5.592l0.064,0.064l-113.192,113.2c-15.552,15.56-15.552,40.88,0,56.448    l39.536,39.536l-0.248,0.408c-1.064-0.224-2.168-0.352-3.304-0.352h-16c-8.776,0-15.904,7.136-15.904,15.904v1.024l-57.08,7.136    c-3.952,0.496-6.92,3.856-6.92,7.84v2.304l-18.592,6.2c-3.224,1.08-5.408,4.096-5.408,7.504v16c0,3.408,2.176,6.424,5.408,7.504    l18.592,6.2v2.288c0,3.984,2.968,7.352,6.92,7.84l57.08,7.136v1.024c0,8.776,7.136,15.904,15.904,15.904h16    c8.776,0,15.904-7.136,15.904-15.904v-0.576l16.184-1.008v60.704l-27.632,13.816l7.08,14.144l32-16    c2.672-1.336,4.368-4.08,4.368-7.072v-66.576l32.184-2.008v101.728l-49.208,7.032c-3.896,0.552-6.792,3.888-6.792,7.832v16    c0,8.776,7.136,15.904,15.904,15.904h40.096v16.08c0,8.776,7.136,15.904,15.904,15.904h28.544c7.664,0,14.24-5.472,15.64-13    l19.584-105.464c0.088-0.48,0.136-0.96,0.136-1.448v-40V328.61h7.048c1.168,0,2.304-0.256,3.36-0.752l15.448-7.248H496    c8.776,0,15.904-7.136,15.904-15.904v-16C511.904,279.938,504.776,272.81,496,272.81z M200.096,301.746l-8.184-2.728v-4.608    l8.184-2.728V301.746z M264.096,319.762l-48.184-6.024v-1.024v-32v-1.024l48.184-6.024V319.762z M296.096,264.714v64v8    c0,0.056-0.04,0.096-0.096,0.096l-16.096-0.096L280,256.618l16.096,0.096V264.714z M335.904,464.714v-9.144l40.184-5.744v14.968    L335.904,464.714z M395.784,20.202L497.6,122.154l-5.72,5.728l-0.048-0.048c-0.008-0.008-0.008-0.016-0.016-0.024L389.992,25.978    l-0.032-0.032L395.784,20.202z M271.2,190.034c-9.4-9.392-9.4-24.68,0-34.072L384.392,42.754l90.552,90.552L403.88,201.97    c-1.16-0.672-2.44-1.16-3.88-1.16h-62.936c-8.344,0-16.2,4.448-20.504,11.6l-8.624,14.36L271.2,190.034z M392.096,216.618v45.68    l-30.072-1.88l-50.12-3.136v-0.568v-5.816l18.2-30.344c1.464-2.432,4.128-3.936,6.952-3.936H392.096z M343.904,318.298v-13.584    h-15.816v14.576l-16.184,1.016v-47.168l42.072,2.632l70.12,4.384v33.144L343.904,318.298z M420.552,496.802l-28.648-0.088v-24    v-8.096H400v-15.816h-8.096v-8.088v-8.096H400v-15.816h-8.096v-16.184H400v-15.816h-8.096v-16.184H400v-15.816h-8.096v-21.664    l40.336-2.52h7.848v16.192H440c-13.176,0-23.904,10.728-23.904,23.904v8c0,12.672,9.944,22.968,22.416,23.752L420.552,496.802z     M440,384.802v0.008c-4.464,0-8.096-3.632-8.096-8.096v-8c0-4.464,3.632-8.096,8.096-8.096l0.096,24.184H440z M472.096,307.69    L472.096,307.69l-10.904,5.12h-21.28v-32.184h22.984l9.2,4.856V307.69z M496.096,304.714l-8.184,0.096v-16.144l8.184,0.048    V304.714z" fill="#FFFFFF"/>
	</g>
</g>
<g>
	<g>
		<rect x="392" y="288.794" width="16" height="15.816" fill="#FFFFFF"/>
	</g>
</g>
<g>
	<g>
		<rect x="360" y="288.794" width="16" height="15.816" fill="#FFFFFF"/>
	</g>
</g>
<g>
	<g>
		<rect x="232" y="288.794" width="16" height="15.816" fill="#FFFFFF"/>
	</g>
</g>
<g>
	<g>
		<rect x="144" y="288.714" width="16" height="16" fill="#FFFFFF"/>
	</g>
</g>
<g>
	<g>
		<rect x="152" y="248.714" width="16" height="16" fill="#FFFFFF"/>
	</g>
</g>
<g>
	<g>
		<rect x="120" y="232.714" width="16" height="16" fill="#FFFFFF"/>
	</g>
</g>
<g>
	<g>
		<rect x="88" y="216.714" width="16" height="16" fill="#FFFFFF"/>
	</g>
</g>
<g>
	<g>
		<rect x="88" y="360.714" width="16" height="16" fill="#FFFFFF"/>
	</g>
</g>
<g>
	<g>
		<rect x="120" y="344.714" width="16" height="16" fill="#FFFFFF"/>
	</g>
</g>
<g>
	<g>
		<rect x="152" y="328.714" width="16" height="16" fill="#FFFFFF"/>
	</g>
</g>
<g>
	<g>
		<rect x="112" y="288.714" width="16" height="16" fill="#FFFFFF"/>
	</g>
</g>
<g>
	<g>
		<rect x="80" y="288.714" width="16" height="16" fill="#FFFFFF"/>
	</g>
</g>
<g>
	<g>
		<path d="M368,112.714c-17.648,0-32,14.352-32,32s14.352,32,32,32s32-14.352,32-32S385.648,112.714,368,112.714z M368,160.714    c-8.824,0-16-7.176-16-16c0-8.824,7.176-16,16-16c8.824,0,16,7.176,16,16C384,153.538,376.824,160.714,368,160.714z" fill="#FFFFFF"/>
	</g>
</g>
<g>
	<g>
		<rect x="280" y="272.714" width="8" height="16" fill="#FFFFFF"/>
	</g>
</g>
<g>
	<g>
		<rect x="280" y="304.714" width="8" height="16" fill="#FFFFFF"/>
	</g>
</g>
<g>
	<g>
		<rect x="288" y="160.714" width="16" height="16" fill="#FFFFFF"/>
	</g>
</g>
<g>
</g>
<g>
</g>
<g>
</g>
<g>
</g>
<g>
</g>
<g>
</g>
<g>
</g>
<g>
</g>
<g>
</g>
<g>
</g>
<g>
</g>
<g>
</g>
<g>
</g>
<g>
</g>
<g>
</g>
</svg>
