<?xml version="1.0" encoding="iso-8859-1"?>
<!-- Generator: Adobe Illustrator 19.0.0, SVG Export Plug-In . SVG Version: 6.00 Build 0)  -->
<svg version="1.1" id="Capa_1" xmlns="http://www.w3.org/2000/svg" xmlns:xlink="http://www.w3.org/1999/xlink" x="0px" y="0px"
	 viewBox="0 0 480.21 480.21" style="enable-background:new 0 0 480.21 480.21;" xml:space="preserve">
<g>
	<g>
		<path d="M352.105,224V24c0-13.255-10.745-24-24-24h-176c-13.255,0-24,10.745-24,24v200h72v54.704l-23.592,70.768
			c-0.252,0.848-0.36,1.732-0.32,2.616c-26.574,35.298-19.503,85.455,15.795,112.029s85.455,19.503,112.029-15.795
			c21.451-28.492,21.451-67.742,0-96.234c0.04-0.884-0.068-1.768-0.32-2.616l-23.592-70.768V224H352.105z M144.105,24
			c0-4.418,3.582-8,8-8h176c4.418,0,8,3.582,8,8v8h-192V24z M144.105,48h192v16h-192V48z M240.105,464
			c-32.223-0.054-59.392-24.033-63.448-56h16.168c4.392,26.112,29.12,43.72,55.232,39.328c20.151-3.389,35.939-19.177,39.328-39.328
			h16.168C299.497,439.967,272.328,463.946,240.105,464z M208.105,400c0-17.673,14.327-32,32-32c17.673,0,32,14.327,32,32
			c0,17.673-14.327,32-32,32C222.432,432,208.105,417.673,208.105,400z M303.553,392h-16.168
			c-4.392-26.112-29.12-43.72-55.232-39.328c-20.151,3.389-35.939,19.177-39.328,39.328h-16.168
			c4.39-35.041,36.356-59.889,71.397-55.499C277.067,340.136,299.918,362.987,303.553,392z M280.745,331.2
			c-25.028-14.962-56.252-14.962-81.28,0l16.64-49.904V224h48v57.296L280.745,331.2z M144.105,208V80h192v128H144.105z"/>
	</g>
</g>
<g>
	<g>
		<path d="M240.105,96c-26.51,0-48,21.49-48,48c0,26.51,21.49,48,48,48c26.51,0,48-21.49,48-48
			C288.078,117.501,266.604,96.026,240.105,96z M240.105,176c-17.673,0-32-14.327-32-32s14.327-32,32-32c17.673,0,32,14.327,32,32
			S257.778,176,240.105,176z"/>
	</g>
</g>
<g>
	<g>
		<path d="M240.105,232c-4.418,0-8,3.582-8,8v64c0,4.418,3.582,8,8,8s8-3.582,8-8v-64C248.105,235.582,244.523,232,240.105,232z"/>
	</g>
</g>
<g>
</g>
<g>
</g>
<g>
</g>
<g>
</g>
<g>
</g>
<g>
</g>
<g>
</g>
<g>
</g>
<g>
</g>
<g>
</g>
<g>
</g>
<g>
</g>
<g>
</g>
<g>
</g>
<g>
</g>
</svg>
