<?xml version="1.0" encoding="iso-8859-1"?>
<!-- Generator: Adobe Illustrator 19.0.0, SVG Export Plug-In . SVG Version: 6.00 Build 0)  -->
<svg xmlns="http://www.w3.org/2000/svg" xmlns:xlink="http://www.w3.org/1999/xlink" version="1.1" id="Layer_1" x="0px" y="0px" viewBox="0 0 512.001 512.001" style="enable-background:new 0 0 512.001 512.001;" xml:space="preserve" width="512px" height="512px">
<g>
	<g>
		<path d="M357.257,264.08c-16.382,0-29.711,13.329-29.711,29.712s13.329,29.711,29.711,29.711    c16.383,0,29.712-13.329,29.712-29.711C386.968,277.408,373.639,264.08,357.257,264.08z M357.257,306.925    c-7.241,0-13.133-5.892-13.133-13.133c0-7.242,5.892-13.134,13.133-13.134c7.242,0,13.134,5.892,13.134,13.134    C370.391,301.033,364.498,306.925,357.257,306.925z" fill="#FFFFFF"/>
	</g>
</g>
<g>
	<g>
		<path d="M509.337,44.468c-0.97-1.973-2.686-3.479-4.767-4.188l-50.914-17.333c-4.333-1.473-9.043,0.842-10.518,5.176    c-1.475,4.333,0.842,9.043,5.176,10.518l43.067,14.661l-7.698,22.612L382.358,41.421l7.698-22.612l25.102,8.545    c4.333,1.474,9.043-0.842,10.518-5.176c1.475-4.333-0.842-9.043-5.176-10.518L387.552,0.444    c-4.333-1.474-9.043,0.842-10.518,5.176l-13.04,38.306c-0.708,2.081-0.561,4.358,0.41,6.331c0.97,1.973,2.684,3.479,4.767,4.188    l11.306,3.849l-6.744,19.809c-0.078-0.001-0.158-0.009-0.235-0.009c-13.953,0-26.064,10.414-28.17,24.224    c-1.149,7.531,0.704,15.058,5.218,21.196c1.649,2.244,3.585,4.2,5.741,5.839l-4.314,12.672c-0.078-0.001-0.158-0.009-0.235-0.009    c-13.953,0-26.064,10.414-28.17,24.224c-1.149,7.531,0.704,15.058,5.216,21.196c1.65,2.244,3.585,4.2,5.741,5.839l-2.622,7.701    l-11.305-3.849c-4.333-1.477-9.043,0.842-10.518,5.176l-13.041,38.306c-0.708,2.081-0.561,4.358,0.409,6.331    c0.76,1.544,1.979,2.796,3.47,3.61h-48.873v-85.514c0-34.902-20.106-65.178-49.332-79.911c-0.42-0.265-0.863-0.495-1.33-0.682    c-11.739-5.673-24.898-8.855-38.785-8.855H91.261c-13.888,0-27.046,3.182-38.785,8.855c-0.466,0.188-0.911,0.418-1.332,0.683    C21.919,99.855,1.813,130.13,1.813,165.032v257.521c0,34.894,20.097,65.165,49.312,79.901c0.43,0.273,0.884,0.507,1.362,0.698    c11.736,5.669,24.89,8.849,38.773,8.849h71.334c13.896,0,27.059-3.186,38.803-8.864c0.45-0.182,0.878-0.405,1.285-0.659    c29.241-14.727,49.36-45.012,49.36-79.925v-85.517h66.846c10.219,9.077,23.657,14.605,38.367,14.605    c31.898,0,57.85-25.951,57.85-57.849c0-1.446-0.071-2.875-0.177-4.294l4.301,1.464c0.885,0.301,1.786,0.444,2.671,0.444    c3.45,0,6.672-2.172,7.846-5.62l13.04-38.306c1.475-4.333-0.842-9.043-5.176-10.518l-11.306-3.849l7.328-21.526    c0.115,0.001,0.231,0.013,0.347,0.013c13.952,0,26.064-10.414,28.17-24.223c1.635-10.718-2.953-20.973-11.054-27.088l4.298-12.623    c0.115,0.001,0.231,0.013,0.347,0.013c13.952,0,26.064-10.414,28.17-24.223c1.635-10.717-2.953-20.973-11.053-27.088l2.021-5.936    l11.306,3.849c0.885,0.301,1.786,0.444,2.672,0.444c3.45,0,6.672-2.172,7.846-5.62l13.04-38.306    C510.454,48.718,510.307,46.441,509.337,44.468z M47.269,480.596c-17.532-13.32-28.879-34.378-28.879-58.044v-257.52    c0-23.665,11.347-44.725,28.879-58.044V480.596z M82.972,494.937c-6.691-0.761-13.105-2.432-19.125-4.886V465.58l19.125-19.125    V494.937z M82.972,423.011l-19.125,19.125V403.75l19.125-19.125V423.011z M82.972,361.182l-19.125,19.124V341.92l19.125-19.125    V361.182z M82.972,299.351l-19.125,19.125V280.09l19.125-19.125V299.351z M82.972,237.52l-19.125,19.125v-38.386l19.125-19.125    V237.52z M82.972,175.69l-19.125,19.125V156.43l19.125-19.125V175.69z M82.972,113.859l-19.125,19.125V97.533    c6.019-2.454,12.434-4.125,19.125-4.886V113.859z M154.307,495.422H99.55v-48.931l21.517,21.517c3.237,3.237,8.486,3.237,11.723,0    l21.517-21.517V495.422z M154.307,423.047l-27.378,27.379L99.55,423.047v-38.385l21.517,21.517c3.237,3.237,8.486,3.237,11.723,0    l21.517-21.517V423.047z M154.307,361.217l-27.378,27.379L99.55,361.217V322.83l21.517,21.518    c1.555,1.555,3.663,2.428,5.862,2.428c2.198,0,4.306-0.873,5.861-2.428l21.517-21.518V361.217z M154.307,299.386l-27.378,27.379    L99.55,299.386v-38.385l21.517,21.517c1.619,1.618,3.74,2.428,5.862,2.428c2.121,0,4.243-0.809,5.861-2.428l21.517-21.517V299.386    z M154.307,237.556l-27.378,27.379L99.55,237.556v-38.385l21.517,21.517c1.619,1.618,3.74,2.428,5.862,2.428    c2.121,0,4.243-0.809,5.861-2.428l21.517-21.517V237.556z M154.307,175.726l-27.378,27.379L99.55,175.726v-38.386l21.517,21.518    c1.555,1.555,3.663,2.428,5.862,2.428c2.198,0,4.306-0.873,5.861-2.428l21.517-21.518V175.726z M154.307,113.895l-27.378,27.379    L99.55,113.895V92.162h54.757V113.895z M190.01,490.052c-6.019,2.453-12.434,4.125-19.125,4.886v-48.482l19.125,19.125V490.052z     M190.01,442.137l-19.125-19.125v-38.385l19.125,19.125V442.137z M190.01,380.306l-19.125-19.125v-38.386l19.125,19.125V380.306z     M190.01,318.476l-19.125-19.125v-38.385l19.125,19.125V318.476z M190.01,256.645l-19.125-19.125v-38.385l19.125,19.125V256.645z     M190.01,194.816l-19.125-19.125v-38.386l19.125,19.125V194.816z M190.01,132.985l-19.125-19.125V92.648    c6.691,0.761,13.105,2.432,19.125,4.886V132.985z M235.466,422.553c0,23.665-11.347,44.725-28.879,58.044v-373.61    c17.532,13.32,28.879,34.378,28.879,58.044V422.553z M252.044,320.458v-53.333h53.858c-7.776,14.947-8.522,33.411-2.024,48.954    c0.041,0.096,0.078,0.193,0.119,0.29c0.335,0.789,0.69,1.568,1.06,2.341c0.045,0.095,0.092,0.189,0.137,0.284    c0.237,0.487,0.458,0.984,0.708,1.464H252.044z M396.169,63.635l36.164,12.311l26.856,9.142l-1.859,5.461l-66.852-10.198    L396.169,63.635z M357.257,335.063c-28.263,0-48.672-29.241-38.622-55.821c7.211-19.071,28.146-30.269,48.004-25.634    c0.069,0.017,0.138,0.032,0.207,0.047c18.189,4.335,31.684,21.293,31.684,40.135C398.528,316.549,380.015,335.063,357.257,335.063    z M416.727,272.596l-6.57-2.237c-7.321-16.506-22.497-28.98-40.101-32.973c-0.094-0.021-0.187-0.044-0.281-0.065    c-13.314-2.974-27.646-1.018-39.677,5.412c-0.145,0.077-0.296,0.144-0.44,0.222l-14.256-4.853l7.699-22.612l101.325,34.494    L416.727,272.596z M347.595,206.316l2.448-7.189l55.755,8.504l11.097,1.693l-6.28,18.446l-43.837-14.923L347.595,206.316z     M445.764,184.878c-0.882,5.783-5.947,10.146-11.782,10.146c-0.606,0-1.22-0.046-1.826-0.139l-2.967-0.453    c-0.002,0-0.006-0.001-0.008-0.002l-69.862-10.656l-9.361-1.428c-0.004-0.001-0.01-0.002-0.014-0.003    c-0.811-0.125-1.629-0.34-2.429-0.644c-0.001,0-0.002-0.001-0.003-0.001c-2.132-0.807-3.991-2.204-5.373-4.084    c-1.89-2.571-2.666-5.723-2.185-8.876c0.882-5.783,5.947-10.146,11.781-10.146c0.606,0,1.22,0.046,1.826,0.139l2.867,0.438h0.001    l79.329,12.101c0.803,0.123,1.599,0.329,2.368,0.615C443.316,173.816,446.632,179.191,445.764,184.878z M368.716,144.273    l3.087-9.068l55.141,8.41l11.711,1.786l-3.087,9.068L368.716,144.273z M467.526,120.956c-0.882,5.783-5.947,10.146-11.781,10.146    c-0.606,0-1.22-0.046-1.826-0.139l-2.969-0.453c-0.002,0-0.004-0.001-0.008-0.001l-79.223-12.085    c-0.816-0.124-1.638-0.342-2.441-0.647c-0.003-0.001-0.007-0.002-0.01-0.003c-2.13-0.807-3.988-2.203-5.369-4.081    c-1.89-2.571-2.666-5.723-2.185-8.876c0.882-5.783,5.947-10.146,11.781-10.146c0.606,0,1.22,0.046,1.826,0.139l2.867,0.438h0.001    l79.329,12.101c0.803,0.123,1.599,0.329,2.368,0.615C465.078,109.894,468.393,115.27,467.526,120.956z" fill="#FFFFFF"/>
	</g>
</g>
<g>
</g>
<g>
</g>
<g>
</g>
<g>
</g>
<g>
</g>
<g>
</g>
<g>
</g>
<g>
</g>
<g>
</g>
<g>
</g>
<g>
</g>
<g>
</g>
<g>
</g>
<g>
</g>
<g>
</g>
</svg>
