<?xml version="1.0" encoding="iso-8859-1"?>
<!-- Generator: Adobe Illustrator 19.0.0, SVG Export Plug-In . SVG Version: 6.00 Build 0)  -->
<svg xmlns="http://www.w3.org/2000/svg" xmlns:xlink="http://www.w3.org/1999/xlink" version="1.1" id="Capa_1" x="0px" y="0px" viewBox="0 0 512 512" style="enable-background:new 0 0 512 512;" xml:space="preserve" width="512px" height="512px">
<g>
	<g>
		<path d="M480.561,71.86V53.895c0-14.857-12.09-26.947-26.947-26.947h-8.982C444.632,12.09,432.541,0,417.684,0H309.895    c-14.857,0-26.947,12.09-26.947,26.947v53.895H76.351c-24.765,0-44.912,20.148-44.912,44.912v341.333    c0,24.765,20.148,44.912,44.912,44.912h359.298c24.765,0,44.912-20.148,44.912-44.912V125.754    c0-12.099-4.859-23.049-12.665-31.133C475.477,89.852,480.561,81.462,480.561,71.86z M300.912,26.947    c0-4.958,4.033-8.982,8.982-8.982h107.789c4.949,0,8.982,4.024,8.982,8.982v71.86c0,4.958-4.033,8.982-8.982,8.982H313.326h-3.431    c-4.949,0-8.982-4.024-8.982-8.982V26.947z M157.193,314.386v89.825c0,9.908-8.057,17.965-17.965,17.965    s-17.965-8.057-17.965-17.965V188.632c0-9.908,8.057-17.965,17.965-17.965s17.965,8.057,17.965,17.965v89.825h80.842v-89.825    c0-9.908,8.057-17.965,17.965-17.965s17.965,8.057,17.965,17.965v89.825h62.877v17.965c0,4.967,4.024,8.982,8.982,8.982h42.415    c-3.117,5.345-8.848,8.982-15.468,8.982h-98.807v89.825c0,9.908-8.057,17.965-17.965,17.965s-17.965-8.057-17.965-17.965v-89.825    H157.193z M354.807,287.439V161.684h35.93v125.754H354.807z M351.376,143.719l-8.982-17.965h54.802l-4.491,17.965H351.376z     M462.596,467.088c0,14.857-12.09,26.947-26.947,26.947H76.351c-14.857,0-26.947-12.09-26.947-26.947V125.754    c0-14.857,12.09-26.947,26.947-26.947h206.596c0,14.857,12.09,26.947,26.947,26.947h12.414l14.534,29.067v105.67H291.93v-71.86    c0-19.815-16.115-35.93-35.93-35.93s-35.93,16.115-35.93,35.93v71.86h-44.912v-71.86c0-19.815-16.115-35.93-35.93-35.93    s-35.93,16.115-35.93,35.93v215.579c0,19.815,16.115,35.93,35.93,35.93s35.93-16.115,35.93-35.93v-71.86h44.912v71.86    c0,19.815,16.115,35.93,35.93,35.93s35.93-16.115,35.93-35.93v-71.86h80.842c19.815,0,35.93-16.115,35.93-35.93V153.807    l7.015-28.052h1.967c14.309,0,25.932-11.246,26.786-25.34c10.518,3.674,18.127,13.581,18.127,25.34V467.088z M462.596,71.86    c0,4.958-4.033,8.982-8.982,8.982h-8.982v-35.93h8.982c4.949,0,8.982,4.024,8.982,8.982V71.86z" fill="#FFFFFF"/>
	</g>
</g>
<g>
	<g>
		<rect x="247.018" y="116.772" width="17.965" height="17.965" fill="#FFFFFF"/>
	</g>
</g>
<g>
	<g>
		<rect x="130.246" y="116.772" width="17.965" height="17.965" fill="#FFFFFF"/>
	</g>
</g>
<g>
	<g>
		<rect x="130.246" y="458.105" width="17.965" height="17.965" fill="#FFFFFF"/>
	</g>
</g>
<g>
	<g>
		<rect x="247.018" y="458.105" width="17.965" height="17.965" fill="#FFFFFF"/>
	</g>
</g>
<g>
	<g>
		<rect x="363.789" y="350.316" width="17.965" height="17.965" fill="#FFFFFF"/>
	</g>
</g>
<g>
</g>
<g>
</g>
<g>
</g>
<g>
</g>
<g>
</g>
<g>
</g>
<g>
</g>
<g>
</g>
<g>
</g>
<g>
</g>
<g>
</g>
<g>
</g>
<g>
</g>
<g>
</g>
<g>
</g>
</svg>
