<?xml version="1.0" encoding="iso-8859-1"?>
<!-- Generator: Adobe Illustrator 19.0.0, SVG Export Plug-In . SVG Version: 6.00 Build 0)  -->
<svg xmlns="http://www.w3.org/2000/svg" xmlns:xlink="http://www.w3.org/1999/xlink" version="1.1" id="Capa_1" x="0px" y="0px" viewBox="0 0 512 512" style="enable-background:new 0 0 512 512;" xml:space="preserve" width="512px" height="512px">
<g>
	<g>
		<path d="M257,129c-23.986,0-43.5,19.514-43.5,43.5c0,23.986,19.514,43.5,43.5,43.5c23.986,0,43.5-19.514,43.5-43.5    C300.5,148.514,280.987,129,257,129z M257,201c-15.715,0-28.5-12.785-28.5-28.5c0-15.715,12.785-28.5,28.5-28.5    c15.715,0,28.5,12.785,28.5,28.5C285.5,188.215,272.716,201,257,201z" fill="#FFFFFF"/>
	</g>
</g>
<g>
	<g>
		<path d="M441.5,366.179v-71.355C441.5,278.378,428.122,265,411.679,265h-9.055c17.626-27.611,26.878-59.302,26.878-92.5    c0-47.152-19.023-89.939-49.79-121.108c-0.222-0.302-0.461-0.595-0.734-0.868s-0.566-0.512-0.868-0.734    C346.94,19.023,304.153,0,257,0c-47.152,0-89.939,19.024-121.108,49.79c-0.302,0.222-0.595,0.461-0.868,0.734    c-0.273,0.273-0.512,0.566-0.734,0.868C103.523,82.561,84.5,125.348,84.5,172.5c0,33.198,9.252,64.889,26.878,92.5h-11.055    C83.878,265,70.5,278.378,70.5,294.822v71.355c0,8.876,3.903,16.854,10.077,22.322c-6.174,5.468-10.077,13.446-10.077,22.322    v71.355C70.5,498.622,83.878,512,100.323,512h311.355c16.444,0,29.822-13.378,29.822-29.822v-71.355    c0-8.876-3.903-16.854-10.077-22.322C437.596,383.033,441.5,375.055,441.5,366.179z M99.68,180H111c4.142,0,7.5-3.358,7.5-7.5    c0-4.142-3.358-7.5-7.5-7.5H99.683c1.78-37.783,16.931-72.127,40.823-98.388l7.954,7.954c1.464,1.464,3.384,2.197,5.303,2.197    s3.839-0.732,5.303-2.197c2.929-2.929,2.929-7.678,0-10.606l-7.954-7.954c26.261-23.892,60.605-39.042,98.388-40.823V28.5    c0,4.142,3.358,7.5,7.5,7.5s7.5-3.358,7.5-7.5V15.183c37.783,1.78,72.127,16.931,98.388,40.823l-7.954,7.954    c-2.929,2.929-2.929,7.678,0,10.606c1.464,1.464,3.384,2.197,5.303,2.197s3.839-0.732,5.303-2.197l7.954-7.954    c23.892,26.261,39.042,60.605,40.823,98.388H403c-4.142,0-7.5,3.358-7.5,7.5c0,4.142,3.358,7.5,7.5,7.5h11.32    c-1.428,30.831-11.661,60.01-29.847,85h-72.761c31.575-18.747,52.788-53.19,52.788-92.5c0-31.27-13.585-60.935-37.273-81.391    c-3.135-2.707-7.871-2.36-10.578,0.774c-2.708,3.135-2.361,7.871,0.774,10.578c20.385,17.604,32.077,43.132,32.077,70.038    c0,51.005-41.495,92.5-92.5,92.5s-92.5-41.495-92.5-92.5S205.995,80,257,80c12.827,0,25.249,2.58,36.922,7.669    c3.799,1.657,8.217-0.081,9.872-3.878c1.655-3.797-0.081-8.217-3.878-9.872C286.341,68,271.903,65,257,65    c-59.276,0-107.5,48.224-107.5,107.5c0,39.31,21.213,73.753,52.788,92.5h-72.761C111.341,240.01,101.109,210.831,99.68,180z     M426.5,472H229c-4.142,0-7.5,3.358-7.5,7.5c0,4.142,3.358,7.5,7.5,7.5H425.68c-2.008,5.809-7.518,10-14.001,10H100.323    c-6.483,0-11.994-4.191-14.001-10H141c4.142,0,7.5-3.358,7.5-7.5c0-4.142-3.358-7.5-7.5-7.5H85.5v-17h341V472z M426.5,355H229    c-4.142,0-7.5,3.358-7.5,7.5c0,4.142,3.358,7.5,7.5,7.5h196.982c-1.692,6.323-7.455,11-14.304,11H270.5    c-4.142,0-7.5,3.358-7.5,7.5c0,4.142,3.358,7.5,7.5,7.5h141.178c7.207,0,13.223,5.173,14.545,12H371c-4.142,0-7.5,3.358-7.5,7.5    c0,4.142,3.358,7.5,7.5,7.5h55.5v17h-341v-17H283c4.142,0,7.5-3.358,7.5-7.5c0-4.142-3.358-7.5-7.5-7.5H85.777    c1.323-6.827,7.338-12,14.545-12H240.5c4.142,0,7.5-3.358,7.5-7.5c0-4.142-3.358-7.5-7.5-7.5H100.323    c-6.849,0-12.612-4.677-14.304-11H141c4.142,0,7.5-3.358,7.5-7.5c0-4.142-3.358-7.5-7.5-7.5H85.5v-17h341V355z M426.5,323h-341    v-17H283c4.142,0,7.5-3.358,7.5-7.5c0-4.142-3.358-7.5-7.5-7.5H86.018c1.692-6.323,7.455-11,14.304-11h287.907    c0.002,0,0.004,0,0.006,0c0.003,0,0.006,0,0.009,0h23.434c6.849,0,12.612,4.677,14.304,11H371c-4.142,0-7.5,3.358-7.5,7.5    c0,4.142,3.358,7.5,7.5,7.5h55.5V323z" fill="#FFFFFF"/>
	</g>
</g>
<g>
	<g>
		<path d="M199,355h-32c-4.142,0-7.5,3.358-7.5,7.5c0,4.142,3.358,7.5,7.5,7.5h32c4.142,0,7.5-3.358,7.5-7.5    C206.5,358.358,203.143,355,199,355z" fill="#FFFFFF"/>
	</g>
</g>
<g>
	<g>
		<path d="M345,291h-32c-4.142,0-7.5,3.358-7.5,7.5c0,4.142,3.358,7.5,7.5,7.5h32c4.142,0,7.5-3.358,7.5-7.5    C352.5,294.358,349.143,291,345,291z" fill="#FFFFFF"/>
	</g>
</g>
<g>
	<g>
		<path d="M199,472h-32c-4.142,0-7.5,3.358-7.5,7.5c0,4.142,3.358,7.5,7.5,7.5h32c4.142,0,7.5-3.358,7.5-7.5    C206.5,475.358,203.143,472,199,472z" fill="#FFFFFF"/>
	</g>
</g>
<g>
	<g>
		<path d="M345,408h-32c-4.142,0-7.5,3.358-7.5,7.5c0,4.142,3.358,7.5,7.5,7.5h32c4.142,0,7.5-3.358,7.5-7.5    C352.5,411.358,349.143,408,345,408z" fill="#FFFFFF"/>
	</g>
</g>
<g>
	<g>
		<path d="M256,88c-10.201,0-18.5,8.299-18.5,18.5S245.799,125,256,125s18.5-8.299,18.5-18.5S266.201,88,256,88z M256,110    c-1.93,0-3.5-1.57-3.5-3.5s1.57-3.5,3.5-3.5s3.5,1.57,3.5,3.5S257.93,110,256,110z" fill="#FFFFFF"/>
	</g>
</g>
<g>
	<g>
		<path d="M323,153c-10.201,0-18.5,8.299-18.5,18.5S312.799,190,323,190s18.5-8.299,18.5-18.5S333.201,153,323,153z M323,175    c-1.93,0-3.5-1.57-3.5-3.5s1.57-3.5,3.5-3.5s3.5,1.57,3.5,3.5S324.93,175,323,175z" fill="#FFFFFF"/>
	</g>
</g>
<g>
	<g>
		<path d="M258,220c-10.201,0-18.5,8.299-18.5,18.5S247.799,257,258,257s18.5-8.299,18.5-18.5S268.201,220,258,220z M258,242    c-1.93,0-3.5-1.57-3.5-3.5s1.57-3.5,3.5-3.5s3.5,1.57,3.5,3.5S259.93,242,258,242z" fill="#FFFFFF"/>
	</g>
</g>
<g>
	<g>
		<path d="M191,155c-10.201,0-18.5,8.299-18.5,18.5S180.799,192,191,192s18.5-8.299,18.5-18.5S201.201,155,191,155z M191,177    c-1.93,0-3.5-1.57-3.5-3.5s1.57-3.5,3.5-3.5s3.5,1.57,3.5,3.5S192.93,177,191,177z" fill="#FFFFFF"/>
	</g>
</g>
<g>
</g>
<g>
</g>
<g>
</g>
<g>
</g>
<g>
</g>
<g>
</g>
<g>
</g>
<g>
</g>
<g>
</g>
<g>
</g>
<g>
</g>
<g>
</g>
<g>
</g>
<g>
</g>
<g>
</g>
</svg>
